# xmcd
#
# Track frame offsets:
#	150
#	23104
#	44898
#	63012
#	82419
#	97054
#	118348
#	130298
#	143441
#	175824
#	192639
#	212046
#	236022
#	263607
#
# Disc length: 4034 seconds
#
# Revision: 6
# Processed by: cddbd v1.5.2PL0 Copyright (c) Steve Scherf et al.
# Submitted via: EasyCDDAExtractor 15.3.0.1
#
DISCID=d40fc00e
DTITLE=Cristian - Amar Es
DYEAR=2003
DGENRE=Latin
TTITLE0=Este Loco Que Te Mira
TTITLE1=Si Yo Fuera El
TTITLE2=Why
TTITLE3=Solo Pienso En Ti
TTITLE4=Gallito Feliz (Rock)
TTITLE5=No Hace Falta
TTITLE6=Oracion Caribe
TTITLE7=Madrigal
TTITLE8=Entre Los Andes
TTITLE9=Te Llame
TTITLE10=Mujer De Dos Caras
TTITLE11=Saudade
TTITLE12=Gallito Feliz
TTITLE13=No Hace Falta (Video)
EXTD=
EXTT0=
EXTT1=
EXTT2=
EXTT3=
EXTT4=
EXTT5=
EXTT6=
EXTT7=
EXTT8=
EXTT9=
EXTT10=
EXTT11=
EXTT12=
EXTT13=
PLAYORDER=
